STARTFONT 2.1
COMMENT
COMMENT Converted from OpenType font "truongsa_regular.ttf" by "otf2bdf 3.0".
COMMENT
FONT -FreeType-VPS Truong Sa Light Hoa-Medium-R-Normal--28-200-100-100-P-141-ISO10646-1
SIZE 20 100 100
FONTBOUNDINGBOX 27 39 -1 -7
STARTPROPERTIES 19
FOUNDRY "FreeType"
FAMILY_NAME "VPS Truong Sa Light Hoa"
WEIGHT_NAME "Medium"
SLANT "R"
SETWIDTH_NAME "Normal"
ADD_STYLE_NAME ""
PIXEL_SIZE 28
POINT_SIZE 200
RESOLUTION_X 100
RESOLUTION_Y 100
SPACING "P"
AVERAGE_WIDTH 141
CHARSET_REGISTRY "ISO10646"
CHARSET_ENCODING "1"
FONT_ASCENT 27
FONT_DESCENT 6
COPYRIGHT "VPS Font"
_OTF_FONTFILE "truongsa_regular.ttf"
_OTF_PSNAME "VPS Truong Sa Light Hoa"
ENDPROPERTIES
CHARS 270
STARTCHAR 0002
ENCODING 2
SWIDTH 648 0
DWIDTH 18 0
BBX 18 24 0 -3
BITMAP
00C000
01E000
01E000
037000
033000
023800
063800
061C00
0C1C00
0C0C00
180E00
1FFE00
1FFE00
300700
300300
300300
600380
600380
7003C0
F807C0
000000
008000
01C000
01C000
ENDCHAR
STARTCHAR 0003
ENCODING 3
SWIDTH 648 0
DWIDTH 18 0
BBX 18 31 0 -4
BITMAP
00C000
00E000
01A000
031000
020800
000000
000000
00C000
01E000
01E000
037000
033000
023800
063800
061C00
0C1C00
0C0C00
180E00
1FFE00
1FFE00
300700
300300
300300
600380
600380
7003C0
F807C0
000000
008000
01C000
01C000
ENDCHAR
STARTCHAR 0004
ENCODING 4
SWIDTH 648 0
DWIDTH 18 0
BBX 18 29 0 -4
BITMAP
041000
03F000
01E000
000000
000000
00C000
01E000
01E000
037000
033000
023800
063800
061C00
0C1C00
0C0C00
180E00
1FFE00
1FFE00
300700
300300
300300
600380
600380
7003C0
F807C0
000000
008000
01C000
01C000
ENDCHAR
STARTCHAR 0005
ENCODING 5
SWIDTH 612 0
DWIDTH 17 0
BBX 16 24 1 -4
BITMAP
FFFE
7C7E
7006
7000
7000
7000
7000
7000
7FF8
7FF8
7008
7000
7000
7000
7000
7000
7001
7003
7FFF
FFFE
0000
0100
0380
0380
ENDCHAR
STARTCHAR 0006
ENCODING 6
SWIDTH 612 0
DWIDTH 17 0
BBX 16 32 1 -5
BITMAP
0180
03C0
03C0
0620
0810
0000
0000
FFFE
7C7E
7006
7000
7000
7000
7000
7000
7FF8
7FF8
7008
7000
7000
7000
7000
7000
7001
7003
7FFF
FFFE
0000
0000
0180
01C0
0080
ENDCHAR
STARTCHAR 0015
ENCODING 21
SWIDTH 684 0
DWIDTH 19 0
BBX 20 30 1 -5
BITMAP
0000E0
000090
000010
000020
0000C0
F80FC0
780780
700300
700300
700180
600180
600180
600180
600180
600180
600180
600180
600180
600180
600180
700300
300300
380600
1E1E00
0FF800
01C000
000000
00C000
01C000
00C000
ENDCHAR
STARTCHAR 0019
ENCODING 25
SWIDTH 648 0
DWIDTH 18 0
BBX 19 25 -1 -5
BITMAP
FC03E0
3801C0
3801C0
1C0180
0C0100
0E0300
070600
030400
038C00
01D800
00F000
00F000
006000
006000
006000
006000
006000
006000
00F000
01F800
000000
000000
007000
007000
002000
ENDCHAR
STARTCHAR 001C
ENCODING 28
SWIDTH 648 0
DWIDTH 18 0
BBX 18 30 0 0
BITMAP
01C800
03F000
040000
00C000
00E000
01A000
031000
020800
000000
000000
00C000
01E000
01E000
037000
033000
023800
063800
061C00
0C1C00
0C0C00
180E00
1FFE00
1FFE00
300700
300300
300300
600380
600380
7003C0
F807C0
ENDCHAR
STARTCHAR 001D
ENCODING 29
SWIDTH 684 0
DWIDTH 19 0
BBX 20 32 1 -1
BITMAP
000400
01E800
03F800
020000
000000
000000
0000E0
000090
000010
000020
0000C0
F80FC0
780780
700300
700300
700180
600180
600180
600180
600180
600180
600180
600180
600180
600180
600180
700300
300300
380600
1E1E00
0FF800
01C000
ENDCHAR
STARTCHAR 0020
ENCODING 32
SWIDTH 252 0
DWIDTH 7 0
BBX 0 0 0 0
BITMAP
ENDCHAR
STARTCHAR 0021
ENCODING 33
SWIDTH 252 0
DWIDTH 7 0
BBX 3 21 2 0
BITMAP
40
E0
E0
E0
E0
E0
E0
60
60
60
40
40
40
40
40
40
00
00
40
E0
E0
ENDCHAR
STARTCHAR 0022
ENCODING 34
SWIDTH 324 0
DWIDTH 9 0
BBX 7 8 1 12
BITMAP
46
E6
C6
C6
46
44
44
44
ENDCHAR
STARTCHAR 0023
ENCODING 35
SWIDTH 756 0
DWIDTH 21 0
BBX 19 20 1 0
BITMAP
006180
006180
006300
00C300
00C300
008600
018600
3FFFE0
010C00
030C00
030800
021800
7FFF80
FFFF80
043000
0C3000
0C6000
186000
186000
18C000
ENDCHAR
STARTCHAR 0024
ENCODING 36
SWIDTH 540 0
DWIDTH 15 0
BBX 13 25 1 -3
BITMAP
0200
0200
0FC0
3260
6230
6230
6200
6200
7200
3E00
1F00
0FC0
03E0
0270
0238
0218
0218
C218
4210
6230
3AE0
1F80
0200
0200
0200
ENDCHAR
STARTCHAR 0025
ENCODING 37
SWIDTH 864 0
DWIDTH 24 0
BBX 21 22 2 -1
BITMAP
000080
3F0300
61FF00
C18200
C0C600
C0C400
C0CC00
C18800
619000
3F1000
002000
002000
0047E0
00CC30
009838
019818
011818
021818
021838
040C30
0C07E0
080000
ENDCHAR
STARTCHAR 0026
ENCODING 38
SWIDTH 756 0
DWIDTH 21 0
BBX 20 21 1 0
BITMAP
0FE000
187000
183000
303000
303000
383000
186000
1DC000
0F0000
0F07E0
370380
638300
C1C300
C0E600
C0E400
C07C00
C03800
E03E00
79EFF0
3FC7E0
040000
ENDCHAR
STARTCHAR 0027
ENCODING 39
SWIDTH 144 0
DWIDTH 4 0
BBX 3 8 1 12
BITMAP
40
E0
C0
C0
40
40
40
40
ENDCHAR
STARTCHAR 0028
ENCODING 40
SWIDTH 324 0
DWIDTH 9 0
BBX 5 26 2 -5
BITMAP
08
18
18
30
30
20
60
60
60
60
C0
C0
C0
C0
C0
C0
60
60
60
60
20
30
30
18
18
08
ENDCHAR
STARTCHAR 0029
ENCODING 41
SWIDTH 324 0
DWIDTH 9 0
BBX 5 26 2 -5
BITMAP
80
C0
40
60
60
20
30
30
30
10
18
18
18
18
18
18
18
30
30
30
30
60
60
40
C0
80
ENDCHAR
STARTCHAR 002A
ENCODING 42
SWIDTH 468 0
DWIDTH 13 0
BBX 10 11 2 10
BITMAP
0C00
0C00
C9C0
E9C0
1600
1C00
EBC0
C9C0
8C80
0C00
0800
ENDCHAR
STARTCHAR 002B
ENCODING 43
SWIDTH 828 0
DWIDTH 23 0
BBX 17 17 3 0
BITMAP
008000
008000
008000
008000
008000
008000
008000
008000
FFFF80
FFFF80
008000
008000
008000
008000
008000
008000
008000
ENDCHAR
STARTCHAR 002C
ENCODING 44
SWIDTH 252 0
DWIDTH 7 0
BBX 3 8 2 -5
BITMAP
40
E0
E0
20
20
20
40
80
ENDCHAR
STARTCHAR 002D
ENCODING 45
SWIDTH 324 0
DWIDTH 9 0
BBX 7 2 1 5
BITMAP
FE
FE
ENDCHAR
STARTCHAR 002E
ENCODING 46
SWIDTH 252 0
DWIDTH 7 0
BBX 3 3 2 0
BITMAP
40
E0
E0
ENDCHAR
STARTCHAR 002F
ENCODING 47
SWIDTH 252 0
DWIDTH 7 0
BBX 8 23 -1 -2
BITMAP
01
01
03
02
02
02
04
04
04
08
08
08
18
10
10
30
20
20
60
40
40
40
80
ENDCHAR
STARTCHAR 0030
ENCODING 48
SWIDTH 540 0
DWIDTH 15 0
BBX 13 20 1 0
BITMAP
1FC0
3860
7030
6030
6038
E018
E018
E018
C018
C018
C018
C018
E018
E018
E038
6038
6030
7030
3860
1FC0
ENDCHAR
STARTCHAR 0031
ENCODING 49
SWIDTH 540 0
DWIDTH 15 0
BBX 11 20 2 0
BITMAP
0600
3E00
FE00
0600
0600
0600
0600
0600
0600
0600
0600
0600
0600
0600
0600
0600
0600
0600
1F80
7FE0
ENDCHAR
STARTCHAR 0032
ENCODING 50
SWIDTH 540 0
DWIDTH 15 0
BBX 14 20 0 1
BITMAP
0FF0
3838
3018
601C
701C
701C
3018
0038
0070
00E0
01C0
0380
0700
0E00
1C00
1800
300C
601C
7FF8
FFF8
ENDCHAR
STARTCHAR 0033
ENCODING 51
SWIDTH 540 0
DWIDTH 15 0
BBX 14 20 0 0
BITMAP
0FE0
3870
3038
7038
3038
0038
0038
0070
03C0
07C0
0070
0038
001C
001C
001C
E01C
E018
6038
7070
3FE0
ENDCHAR
STARTCHAR 0034
ENCODING 52
SWIDTH 540 0
DWIDTH 15 0
BBX 15 20 0 1
BITMAP
00E0
01E0
03E0
0360
0660
0C60
1860
1860
3060
3060
6060
6060
4060
FFFE
7FFE
0060
0060
0060
0070
01F8
ENDCHAR
STARTCHAR 0035
ENCODING 53
SWIDTH 540 0
DWIDTH 15 0
BBX 13 20 1 0
BITMAP
3FF0
7FC0
6000
6000
6000
6000
6000
6000
7FE0
7070
0038
0038
0038
0038
0038
C038
C038
C070
E0E0
3FC0
ENDCHAR
STARTCHAR 0036
ENCODING 54
SWIDTH 540 0
DWIDTH 15 0
BBX 13 20 1 0
BITMAP
01F0
0700
0C00
1800
3000
7000
6000
6000
EFE0
F870
E038
E038
C018
C018
E018
E018
6038
7030
3870
1FC0
ENDCHAR
STARTCHAR 0037
ENCODING 55
SWIDTH 540 0
DWIDTH 15 0
BBX 12 20 2 0
BITMAP
FFF0
FFF0
C030
8060
8060
0040
00C0
00C0
0180
0180
0300
0300
0700
0600
0600
0E00
0C00
1C00
1C00
1800
ENDCHAR
STARTCHAR 0038
ENCODING 56
SWIDTH 540 0
DWIDTH 15 0
BBX 14 20 1 0
BITMAP
1FE0
3070
6030
4018
C018
E030
7030
7860
3F80
0FC0
1BF0
30F8
6038
C018
C01C
C018
C018
C038
7070
3FC0
ENDCHAR
STARTCHAR 0039
ENCODING 57
SWIDTH 540 0
DWIDTH 15 0
BBX 13 20 1 0
BITMAP
1FC0
3060
6030
E038
C038
C018
C018
C018
E018
6038
78F8
3FB8
0038
0030
0070
0060
00C0
0180
0700
7C00
ENDCHAR
STARTCHAR 003A
ENCODING 58
SWIDTH 252 0
DWIDTH 7 0
BBX 3 12 2 0
BITMAP
E0
E0
40
00
00
00
00
00
00
40
E0
E0
ENDCHAR
STARTCHAR 003B
ENCODING 59
SWIDTH 252 0
DWIDTH 7 0
BBX 3 17 2 -5
BITMAP
E0
E0
40
00
00
00
00
00
00
40
E0
E0
20
20
20
40
80
ENDCHAR
STARTCHAR 003C
ENCODING 60
SWIDTH 828 0
DWIDTH 23 0
BBX 16 15 4 1
BITMAP
0001
0007
001E
00F0
03C0
1E00
7800
E000
F000
3C00
0780
01E0
003C
000F
0003
ENDCHAR
STARTCHAR 003D
ENCODING 61
SWIDTH 828 0
DWIDTH 23 0
BBX 17 7 3 5
BITMAP
FFFF80
FFFF80
000000
000000
000000
000000
FFFF80
ENDCHAR
STARTCHAR 003E
ENCODING 62
SWIDTH 828 0
DWIDTH 23 0
BBX 16 14 4 2
BITMAP
C000
F800
1E00
0780
00F0
003C
0007
001E
0078
03E0
0F00
7C00
E000
8000
ENDCHAR
STARTCHAR 003F
ENCODING 63
SWIDTH 432 0
DWIDTH 12 0
BBX 10 20 1 1
BITMAP
7F00
C180
C0C0
C0C0
00C0
00C0
00C0
01C0
0380
0700
1E00
1800
1000
1000
1000
0000
0000
1000
3800
3800
ENDCHAR
STARTCHAR 0040
ENCODING 64
SWIDTH 972 0
DWIDTH 27 0
BBX 23 24 2 -4
BITMAP
001F00
01E0E0
020010
0C0008
180004
300002
200C02
6032C2
40C1C2
C0C1C2
C18182
C18182
C38182
C30382
C30304
C30704
410B08
40D1B0
202040
300000
180000
0C0018
038040
007E80
ENDCHAR
STARTCHAR 0041
ENCODING 65
SWIDTH 648 0
DWIDTH 18 0
BBX 18 20 0 1
BITMAP
00C000
01E000
01E000
037000
033000
023800
063800
061C00
0C1C00
0C0C00
180E00
1FFE00
1FFE00
300700
300300
300300
600380
600380
7003C0
F807C0
ENDCHAR
STARTCHAR 0042
ENCODING 66
SWIDTH 648 0
DWIDTH 18 0
BBX 17 20 1 0
BITMAP
FFF800
7EFC00
700E00
700E00
700600
700E00
700E00
701C00
707000
7FF800
7E1E00
700F00
700700
700380
700380
700380
700700
700F00
7FFE00
FFF800
ENDCHAR
STARTCHAR 0043
ENCODING 67
SWIDTH 684 0
DWIDTH 19 0
BBX 18 22 1 -1
BITMAP
002000
03FE00
0E0F80
1C0380
380180
700080
700080
E00000
E00000
E00000
E00000
E00000
E00000
E00000
E00000
700000
7000C0
3800C0
3C0380
1F0F00
07FC00
00E000
ENDCHAR
STARTCHAR 0044
ENCODING 68
SWIDTH 720 0
DWIDTH 20 0
BBX 18 20 1 0
BITMAP
FFF000
787C00
700E00
700700
700380
700380
7001C0
7001C0
7001C0
7001C0
7001C0
7001C0
7001C0
7001C0
700380
700380
700700
700E00
787C00
FFE000
ENDCHAR
STARTCHAR 0045
ENCODING 69
SWIDTH 612 0
DWIDTH 17 0
BBX 16 20 1 0
BITMAP
FFFE
7C7E
7006
7000
7000
7000
7000
7000
7FF8
7FF8
7008
7000
7000
7000
7000
7000
7001
7003
7FFF
FFFE
ENDCHAR
STARTCHAR 0046
ENCODING 70
SWIDTH 540 0
DWIDTH 15 0
BBX 14 20 1 0
BITMAP
FFFC
7C7C
7004
7000
7000
7000
7000
7000
7010
7FF0
7070
7000
7000
7000
7000
7000
7000
7000
7800
FC00
ENDCHAR
STARTCHAR 0047
ENCODING 71
SWIDTH 756 0
DWIDTH 21 0
BBX 19 21 1 0
BITMAP
03FF00
0F0380
1C01C0
3800C0
380040
700000
700000
E00000
E00000
E00000
E00FE0
E001E0
E000E0
E000E0
7000E0
7000E0
3800E0
1C00E0
0F03C0
07FF00
00F000
ENDCHAR
STARTCHAR 0048
ENCODING 72
SWIDTH 756 0
DWIDTH 21 0
BBX 20 20 1 0
BITMAP
FC03F0
7801C0
7001C0
7001C0
7001C0
7001C0
7001C0
7001C0
7FFFC0
7FFFC0
7001C0
7001C0
7001C0
7001C0
7001C0
7001C0
7001C0
7001C0
7801E0
FC03E0
ENDCHAR
STARTCHAR 0049
ENCODING 73
SWIDTH 252 0
DWIDTH 7 0
BBX 6 20 1 0
BITMAP
FC
78
30
30
30
30
30
30
30
30
30
30
30
30
30
30
30
70
78
FC
ENDCHAR
STARTCHAR 004A
ENCODING 74
SWIDTH 432 0
DWIDTH 12 0
BBX 12 21 0 -1
BITMAP
03F0
01E0
00C0
00C0
00C0
00C0
00C0
00C0
00C0
00C0
00C0
00C0
00C0
70C0
F0C0
C0C0
C0C0
C0C0
E1C0
7F80
1C00
ENDCHAR
STARTCHAR 004B
ENCODING 75
SWIDTH 612 0
DWIDTH 17 0
BBX 17 20 1 0
BITMAP
FC3F00
781E00
701C00
701800
703000
706000
70C000
718000
738000
77C000
7CE000
787000
703800
703800
701C00
700C00
700E00
700600
780F00
FC0F80
ENDCHAR
STARTCHAR 004C
ENCODING 76
SWIDTH 576 0
DWIDTH 16 0
BBX 15 20 1 0
BITMAP
FC00
7800
7000
7000
7000
7000
7000
7000
7000
7000
7000
7000
7000
7000
7000
7000
7000
7006
7FFE
FFFE
ENDCHAR
STARTCHAR 004D
ENCODING 77
SWIDTH 792 0
DWIDTH 22 0
BBX 22 20 0 0
BITMAP
7C007C
3C0078
1E00F0
1600F0
1600B0
1701B0
1301B0
138330
318330
31C630
31C630
30CC30
30EC30
307830
307830
303830
303030
300038
380038
FC00FC
ENDCHAR
STARTCHAR 004E
ENCODING 78
SWIDTH 720 0
DWIDTH 20 0
BBX 20 20 0 0
BITMAP
F803F0
7C00C0
3E00C0
3700C0
3380C0
33C0C0
31C0C0
30E0C0
3070C0
3038C0
3038C0
301CC0
300EC0
3006C0
3007C0
3003C0
3001C0
3001C0
7800C0
FC00C0
ENDCHAR
STARTCHAR 004F
ENCODING 79
SWIDTH 756 0
DWIDTH 21 0
BBX 19 21 1 0
BITMAP
07FC00
0E0F00
1C0380
380180
7001C0
7000E0
E000E0
E000E0
E000E0
E00060
E00060
E000E0
E000E0
E000E0
6000E0
7001C0
3801C0
180380
0E0F00
07FC00
006000
ENDCHAR
STARTCHAR 0050
ENCODING 80
SWIDTH 576 0
DWIDTH 16 0
BBX 15 20 1 0
BITMAP
FFF0
7CFC
701E
700E
7006
7006
700E
700E
701C
703C
77F0
7F80
7000
7000
7000
7000
7000
7000
7800
FC00
ENDCHAR
STARTCHAR 0051
ENCODING 81
SWIDTH 756 0
DWIDTH 21 0
BBX 19 24 1 -3
BITMAP
07FC00
0E0F00
1C0380
380180
7001C0
7000E0
E000E0
E000E0
E000E0
E00060
E000E0
E000E0
E000E0
E000E0
7000E0
7061C0
3861C0
182380
0E2F00
07FC00
007800
000E00
0007E0
0003E0
ENDCHAR
STARTCHAR 0052
ENCODING 82
SWIDTH 612 0
DWIDTH 17 0
BBX 17 20 1 0
BITMAP
FFF800
7FFC00
700E00
700600
700700
700700
700E00
701E00
703C00
73F000
7FE000
707000
703800
701800
701C00
700C00
700E00
700E00
780F00
FC1F80
ENDCHAR
STARTCHAR 0053
ENCODING 83
SWIDTH 576 0
DWIDTH 16 0
BBX 15 21 0 0
BITMAP
0FF8
183C
301C
700C
6000
7000
7000
3C00
3FC0
0FF8
03FC
001E
000E
0006
0006
C006
6006
700C
383C
1FF0
0100
ENDCHAR
STARTCHAR 0054
ENCODING 84
SWIDTH 576 0
DWIDTH 16 0
BBX 16 20 0 0
BITMAP
7FFF
FBDF
C183
8181
0180
0180
0180
0180
0180
0180
0180
0180
0180
0180
0180
0180
0180
0180
03C0
07E0
ENDCHAR
STARTCHAR 0055
ENCODING 85
SWIDTH 684 0
DWIDTH 19 0
BBX 18 21 1 -1
BITMAP
F80FC0
780780
700300
700300
700180
600180
600180
600180
600180
600180
600180
600180
600180
600180
600180
700300
300300
380600
1E1E00
0FF800
01C000
ENDCHAR
STARTCHAR 0056
ENCODING 86
SWIDTH 648 0
DWIDTH 18 0
BBX 18 20 0 -1
BITMAP
F807C0
7003C0
700180
700180
300180
300300
380300
380300
180600
1C0600
1C0600
0C0C00
0E0C00
061800
071800
073000
03B000
03E000
01E000
00C000
ENDCHAR
STARTCHAR 0057
ENCODING 87
SWIDTH 900 0
DWIDTH 25 0
BBX 26 21 0 -1
BITMAP
FC3F07C0
701E0380
700C0300
700C0300
300C0300
301E0300
301E0200
381E0200
18160600
18370600
18330400
1C230C00
0C638C00
0C618C00
0EC1D800
0EC1D800
06C0F800
0780F000
07807000
03006000
00002000
ENDCHAR
STARTCHAR 0058
ENCODING 88
SWIDTH 648 0
DWIDTH 18 0
BBX 18 20 0 0
BITMAP
FC0F80
380700
380600
1C0400
0C0C00
0E1800
071000
03B000
03E000
01C000
01E000
017000
033800
061C00
0C0C00
0C0E00
180700
380700
780780
FC07C0
ENDCHAR
STARTCHAR 0059
ENCODING 89
SWIDTH 648 0
DWIDTH 18 0
BBX 19 20 -1 0
BITMAP
FC03E0
3801C0
3801C0
1C0180
0C0100
0E0300
070600
030400
038C00
01D800
00F000
00F000
006000
006000
006000
006000
006000
006000
00F000
01F800
ENDCHAR
STARTCHAR 005A
ENCODING 90
SWIDTH 540 0
DWIDTH 15 0
BBX 15 20 0 0
BITMAP
3FFC
3C1C
201C
0018
0038
0070
0060
00E0
01C0
0380
0380
0700
0E00
1C00
1C00
3800
7002
700E
FFFE
7FFC
ENDCHAR
STARTCHAR 005B
ENCODING 91
SWIDTH 324 0
DWIDTH 9 0
BBX 4 24 3 -4
BITMAP
F0
C0
C0
C0
C0
C0
C0
C0
C0
C0
C0
C0
C0
C0
C0
C0
C0
C0
C0
C0
C0
C0
C0
F0
ENDCHAR
STARTCHAR 005C
ENCODING 92
SWIDTH 252 0
DWIDTH 7 0
BBX 7 22 0 -2
BITMAP
80
80
80
C0
40
40
60
20
20
30
10
10
10
08
08
08
04
04
04
06
02
02
ENDCHAR
STARTCHAR 005D
ENCODING 93
SWIDTH 324 0
DWIDTH 9 0
BBX 4 24 2 -4
BITMAP
F0
30
10
10
10
10
10
10
10
10
10
10
10
10
10
10
10
10
10
10
10
10
30
F0
ENDCHAR
STARTCHAR 005E
ENCODING 94
SWIDTH 972 0
DWIDTH 27 0
BBX 16 8 6 12
BITMAP
0380
07C0
0E60
0C30
1818
300C
4006
8003
ENDCHAR
STARTCHAR 005F
ENCODING 95
SWIDTH 468 0
DWIDTH 13 0
BBX 14 2 0 -7
BITMAP
FFFC
FFFC
ENDCHAR
STARTCHAR 0060
ENCODING 96
SWIDTH 468 0
DWIDTH 13 0
BBX 6 4 3 16
BITMAP
E0
70
38
0C
ENDCHAR
STARTCHAR 0061
ENCODING 97
SWIDTH 648 0
DWIDTH 18 0
BBX 18 20 0 1
BITMAP
00C000
01E000
01E000
037000
033000
023800
063800
061C00
0C1C00
0C0C00
180E00
1FFE00
1FFE00
300700
300300
300300
600380
600380
7003C0
F807C0
ENDCHAR
STARTCHAR 0062
ENCODING 98
SWIDTH 648 0
DWIDTH 18 0
BBX 17 20 1 0
BITMAP
FFF800
7EFC00
700E00
700E00
700600
700E00
700E00
701C00
707000
7FF800
7E1E00
700F00
700700
700380
700380
700380
700700
700F00
7FFE00
FFF800
ENDCHAR
STARTCHAR 0063
ENCODING 99
SWIDTH 684 0
DWIDTH 19 0
BBX 18 22 1 -1
BITMAP
002000
03FE00
0E0F80
1C0380
380180
700080
700080
E00000
E00000
E00000
E00000
E00000
E00000
E00000
E00000
700000
7000C0
3800C0
3C0380
1F0F00
07FC00
00E000
ENDCHAR
STARTCHAR 0064
ENCODING 100
SWIDTH 720 0
DWIDTH 20 0
BBX 18 20 1 0
BITMAP
FFF000
787C00
700E00
700700
700380
700380
7001C0
7001C0
7001C0
7001C0
7001C0
7001C0
7001C0
7001C0
700380
700380
700700
700E00
787C00
FFE000
ENDCHAR
STARTCHAR 0065
ENCODING 101
SWIDTH 612 0
DWIDTH 17 0
BBX 16 20 1 0
BITMAP
FFFE
7C7E
7006
7000
7000
7000
7000
7000
7FF8
7FF8
7008
7000
7000
7000
7000
7000
7001
7003
7FFF
FFFE
ENDCHAR
STARTCHAR 0066
ENCODING 102
SWIDTH 540 0
DWIDTH 15 0
BBX 14 20 1 0
BITMAP
FFFC
7C7C
7004
7000
7000
7000
7000
7000
7010
7FF0
7070
7000
7000
7000
7000
7000
7000
7000
7800
FC00
ENDCHAR
STARTCHAR 0067
ENCODING 103
SWIDTH 756 0
DWIDTH 21 0
BBX 19 21 1 0
BITMAP
03FF00
0F0380
1C01C0
3800C0
380040
700000
700000
E00000
E00000
E00000
E00FE0
E001E0
E000E0
E000E0
7000E0
7000E0
3800E0
1C00E0
0F03C0
07FF00
00F000
ENDCHAR
STARTCHAR 0068
ENCODING 104
SWIDTH 756 0
DWIDTH 21 0
BBX 20 20 1 0
BITMAP
FC03F0
7801C0
7001C0
7001C0
7001C0
7001C0
7001C0
7001C0
7FFFC0
7FFFC0
7001C0
7001C0
7001C0
7001C0
7001C0
7001C0
7001C0
7001C0
7801E0
FC03E0
ENDCHAR
STARTCHAR 0069
ENCODING 105
SWIDTH 252 0
DWIDTH 7 0
BBX 6 20 1 0
BITMAP
FC
78
30
30
30
30
30
30
30
30
30
30
30
30
30
30
30
70
78
FC
ENDCHAR
STARTCHAR 006A
ENCODING 106
SWIDTH 432 0
DWIDTH 12 0
BBX 12 21 0 -1
BITMAP
03F0
01E0
00C0
00C0
00C0
00C0
00C0
00C0
00C0
00C0
00C0
00C0
00C0
70C0
F0C0
C0C0
C0C0
C0C0
E1C0
7F80
1C00
ENDCHAR
STARTCHAR 006B
ENCODING 107
SWIDTH 612 0
DWIDTH 17 0
BBX 17 20 1 0
BITMAP
FC3F00
781E00
701C00
701800
703000
706000
70C000
718000
738000
77C000
7CE000
787000
703800
703800
701C00
700C00
700E00
700600
780F00
FC0F80
ENDCHAR
STARTCHAR 006C
ENCODING 108
SWIDTH 576 0
DWIDTH 16 0
BBX 15 20 1 0
BITMAP
FC00
7800
7000
7000
7000
7000
7000
7000
7000
7000
7000
7000
7000
7000
7000
7000
7000
7006
7FFE
FFFE
ENDCHAR
STARTCHAR 006D
ENCODING 109
SWIDTH 792 0
DWIDTH 22 0
BBX 22 20 0 0
BITMAP
7C007C
3C0078
1E00F0
1600F0
1600B0
1701B0
1301B0
138330
318330
31C630
31C630
30CC30
30EC30
307830
307830
303830
303030
300038
380038
FC00FC
ENDCHAR
STARTCHAR 006E
ENCODING 110
SWIDTH 720 0
DWIDTH 20 0
BBX 20 20 0 0
BITMAP
F803F0
7C00C0
3E00C0
3700C0
3380C0
33C0C0
31C0C0
30E0C0
3070C0
3038C0
3038C0
301CC0
300EC0
3006C0
3007C0
3003C0
3001C0
3001C0
7800C0
FC00C0
ENDCHAR
STARTCHAR 006F
ENCODING 111
SWIDTH 756 0
DWIDTH 21 0
BBX 19 21 1 0
BITMAP
07FC00
0E0F00
1C0380
380180
7001C0
7000E0
E000E0
E000E0
E000E0
E00060
E00060
E000E0
E000E0
E000E0
6000E0
7001C0
3801C0
180380
0E0F00
07FC00
006000
ENDCHAR
STARTCHAR 0070
ENCODING 112
SWIDTH 576 0
DWIDTH 16 0
BBX 15 20 1 0
BITMAP
FFF0
7CFC
701E
700E
7006
7006
700E
700E
701C
703C
77F0
7F80
7000
7000
7000
7000
7000
7000
7800
FC00
ENDCHAR
STARTCHAR 0071
ENCODING 113
SWIDTH 756 0
DWIDTH 21 0
BBX 19 24 1 -3
BITMAP
07FC00
0E0F00
1C0380
380180
7001C0
7000E0
E000E0
E000E0
E000E0
E00060
E000E0
E000E0
E000E0
E000E0
7000E0
7061C0
3861C0
182380
0E2F00
07FC00
007800
000E00
0007E0
0003E0
ENDCHAR
STARTCHAR 0072
ENCODING 114
SWIDTH 612 0
DWIDTH 17 0
BBX 17 20 1 0
BITMAP
FFF800
7FFC00
700E00
700600
700700
700700
700E00
701E00
703C00
73F000
7FE000
707000
703800
701800
701C00
700C00
700E00
700E00
780F00
FC1F80
ENDCHAR
STARTCHAR 0073
ENCODING 115
SWIDTH 576 0
DWIDTH 16 0
BBX 15 21 0 0
BITMAP
0FF8
183C
301C
700C
6000
7000
7000
3C00
3FC0
0FF8
03FC
001E
000E
0006
0006
C006
6006
700C
383C
1FF0
0100
ENDCHAR
STARTCHAR 0074
ENCODING 116
SWIDTH 576 0
DWIDTH 16 0
BBX 16 20 0 0
BITMAP
7FFF
FBDF
C183
8181
0180
0180
0180
0180
0180
0180
0180
0180
0180
0180
0180
0180
0180
0180
03C0
07E0
ENDCHAR
STARTCHAR 0075
ENCODING 117
SWIDTH 684 0
DWIDTH 19 0
BBX 18 21 1 -1
BITMAP
F80FC0
780780
700300
700300
700180
600180
600180
600180
600180
600180
600180
600180
600180
600180
600180
700300
300300
380600
1E1E00
0FF800
01C000
ENDCHAR
STARTCHAR 0076
ENCODING 118
SWIDTH 648 0
DWIDTH 18 0
BBX 18 20 0 -1
BITMAP
F807C0
7003C0
700180
700180
300180
300300
380300
380300
180600
1C0600
1C0600
0C0C00
0E0C00
061800
071800
073000
03B000
03E000
01E000
00C000
ENDCHAR
STARTCHAR 0077
ENCODING 119
SWIDTH 900 0
DWIDTH 25 0
BBX 26 21 0 -1
BITMAP
FC3F07C0
701E0380
700C0300
700C0300
300C0300
301E0300
301E0200
381E0200
18160600
18370600
18330400
1C230C00
0C638C00
0C618C00
0EC1D800
0EC1D800
06C0F800
0780F000
07807000
03006000
00002000
ENDCHAR
STARTCHAR 0078
ENCODING 120
SWIDTH 648 0
DWIDTH 18 0
BBX 18 20 0 0
BITMAP
FC0F80
380700
380600
1C0400
0C0C00
0E1800
071000
03B000
03E000
01C000
01E000
017000
033800
061C00
0C0C00
0C0E00
180700
380700
780780
FC07C0
ENDCHAR
STARTCHAR 0079
ENCODING 121
SWIDTH 648 0
DWIDTH 18 0
BBX 19 20 -1 0
BITMAP
FC03E0
3801C0
3801C0
1C0180
0C0100
0E0300
070600
030400
038C00
01D800
00F000
00F000
006000
006000
006000
006000
006000
006000
00F000
01F800
ENDCHAR
STARTCHAR 007A
ENCODING 122
SWIDTH 540 0
DWIDTH 15 0
BBX 15 20 0 0
BITMAP
3FFC
3C1C
201C
0018
0038
0070
0060
00E0
01C0
0380
0380
0700
0E00
1C00
1C00
3800
7002
700E
FFFE
7FFC
ENDCHAR
STARTCHAR 007B
ENCODING 123
SWIDTH 468 0
DWIDTH 13 0
BBX 9 23 2 -2
BITMAP
0700
0400
0C00
0C00
0C00
0C00
0C00
0C00
0C00
0C00
1800
E000
1800
0C00
0C00
0C00
0C00
0C00
0C00
0C00
0C00
0600
0380
ENDCHAR
STARTCHAR 007C
ENCODING 124
SWIDTH 468 0
DWIDTH 13 0
BBX 2 28 6 -7
BITMAP
C0
C0
C0
C0
C0
C0
C0
C0
C0
C0
C0
C0
C0
C0
C0
C0
C0
C0
C0
C0
C0
C0
C0
C0
C0
C0
C0
C0
ENDCHAR
STARTCHAR 007D
ENCODING 125
SWIDTH 468 0
DWIDTH 13 0
BBX 10 24 2 -3
BITMAP
8000
3800
1800
0C00
0C00
0C00
0C00
0C00
0C00
0C00
0C00
0600
01C0
0600
0C00
0C00
0C00
0C00
0C00
0C00
0C00
0800
1800
7000
ENDCHAR
STARTCHAR 007E
ENCODING 126
SWIDTH 828 0
DWIDTH 23 0
BBX 19 4 2 6
BITMAP
1F8020
7FF1E0
C03F80
800000
ENDCHAR
STARTCHAR 0080
ENCODING 128
SWIDTH 648 0
DWIDTH 18 0
BBX 18 27 0 0
BITMAP
020000
070000
018000
00C000
002000
000000
000000
00C000
01E000
01E000
037000
033000
023800
063800
061C00
0C1C00
0C0C00
180E00
1FFE00
1FFE00
300700
300300
300300
600380
600380
7003C0
F807C0
ENDCHAR
STARTCHAR 0081
ENCODING 129
SWIDTH 648 0
DWIDTH 18 0
BBX 18 28 0 0
BITMAP
01E000
012000
002000
002000
00C000
000000
000000
000000
00C000
01E000
01E000
037000
033000
023800
063800
061C00
0C1C00
0C0C00
180E00
1FFE00
1FFE00
300700
300300
300300
600380
600380
7003C0
F807C0
ENDCHAR
STARTCHAR 008D
ENCODING 141
SWIDTH 648 0
DWIDTH 18 0
BBX 18 30 0 1
BITMAP
000C00
001C00
003000
004000
008000
041000
03F000
01E000
000000
000000
00C000
01E000
01E000
037000
033000
023800
063800
061C00
0C1C00
0C0C00
180E00
1FFE00
1FFE00
300700
300300
300300
600380
600380
7003C0
F807C0
ENDCHAR
STARTCHAR 008E
ENCODING 142
SWIDTH 648 0
DWIDTH 18 0
BBX 18 31 0 0
BITMAP
080000
1C0000
0E0000
030000
008000
000000
041000
03F000
01E000
000000
000000
00C000
01E000
01E000
037000
033000
023800
063800
061C00
0C1C00
0C0C00
180E00
1FFE00
1FFE00
300700
300300
300300
600380
600380
7003C0
F807C0
ENDCHAR
STARTCHAR 008F
ENCODING 143
SWIDTH 648 0
DWIDTH 18 0
BBX 18 32 0 0
BITMAP
00C000
012000
002000
002000
006000
008000
000000
041000
03F000
01E000
000000
000000
00C000
01E000
01E000
037000
033000
023800
063800
061C00
0C1C00
0C0C00
180E00
1FFE00
1FFE00
300700
300300
300300
600380
600380
7003C0
F807C0
ENDCHAR
STARTCHAR 0090
ENCODING 144
SWIDTH 612 0
DWIDTH 17 0
BBX 17 30 1 0
BITMAP
000180
000300
000600
018800
03D000
03C000
062000
081000
000000
000000
FFFE00
7C7E00
700600
700000
700000
700000
700000
700000
7FF800
7FF800
700800
700000
700000
700000
700000
700000
700100
700300
7FFF00
FFFE00
ENDCHAR
STARTCHAR 009D
ENCODING 157
SWIDTH 756 0
DWIDTH 21 0
BBX 19 30 1 -1
BITMAP
000400
000E00
001C00
003000
0061C0
000040
000040
000040
000180
07FC00
0E0F00
1C0380
380180
7001C0
7000E0
E000E0
E000E0
E000E0
E00060
E00060
E000E0
E000E0
E000E0
6000E0
7001C0
3801C0
180380
0E0F00
07FC00
006000
ENDCHAR
STARTCHAR 009E
ENCODING 158
SWIDTH 756 0
DWIDTH 21 0
BBX 19 30 1 -1
BITMAP
020000
030000
038000
00C000
0021C0
000040
000040
000040
000180
07FC00
0E0F00
1C0380
380180
7001C0
7000E0
E000E0
E000E0
E000E0
E00060
E00060
E000E0
E000E0
E000E0
6000E0
7001C0
3801C0
180380
0E0F00
07FC00
006000
ENDCHAR
STARTCHAR 00A0
ENCODING 160
SWIDTH 540 0
DWIDTH 15 0
BBX 0 0 0 0
BITMAP
ENDCHAR
STARTCHAR 00A1
ENCODING 161
SWIDTH 648 0
DWIDTH 18 0
BBX 18 30 0 1
BITMAP
000C00
001C00
003000
004000
008000
041000
03F000
01E000
000000
000000
00C000
01E000
01E000
037000
033000
023800
063800
061C00
0C1C00
0C0C00
180E00
1FFE00
1FFE00
300700
300300
300300
600380
600380
7003C0
F807C0
ENDCHAR
STARTCHAR 00A2
ENCODING 162
SWIDTH 648 0
DWIDTH 18 0
BBX 18 31 0 0
BITMAP
080000
1C0000
0E0000
030000
008000
000000
041000
03F000
01E000
000000
000000
00C000
01E000
01E000
037000
033000
023800
063800
061C00
0C1C00
0C0C00
180E00
1FFE00
1FFE00
300700
300300
300300
600380
600380
7003C0
F807C0
ENDCHAR
STARTCHAR 00A3
ENCODING 163
SWIDTH 648 0
DWIDTH 18 0
BBX 18 32 0 0
BITMAP
00C000
012000
002000
002000
006000
008000
000000
041000
03F000
01E000
000000
000000
00C000
01E000
01E000
037000
033000
023800
063800
061C00
0C1C00
0C0C00
180E00
1FFE00
1FFE00
300700
300300
300300
600380
600380
7003C0
F807C0
ENDCHAR
STARTCHAR 00A4
ENCODING 164
SWIDTH 648 0
DWIDTH 18 0
BBX 18 30 0 0
BITMAP
01C800
03F000
040000
000000
000000
041000
03F000
01E000
000000
000000
00C000
01E000
01E000
037000
033000
023800
063800
061C00
0C1C00
0C0C00
180E00
1FFE00
1FFE00
300700
300300
300300
600380
600380
7003C0
F807C0
ENDCHAR
STARTCHAR 00A5
ENCODING 165
SWIDTH 648 0
DWIDTH 18 0
BBX 18 29 0 -4
BITMAP
041000
03F000
01E000
000000
000000
00C000
01E000
01E000
037000
033000
023800
063800
061C00
0C1C00
0C0C00
180E00
1FFE00
1FFE00
300700
300300
300300
600380
600380
7003C0
F807C0
000000
008000
01C000
01C000
ENDCHAR
STARTCHAR 00A6
ENCODING 166
SWIDTH 756 0
DWIDTH 21 0
BBX 19 31 1 -1
BITMAP
01C800
03F800
020000
000000
000000
0001C0
000040
000040
000040
000180
07FC00
0E0F00
1C0380
380180
7001C0
7000E0
E000E0
E000E0
E000E0
E00060
E00060
E000E0
E000E0
E000E0
6000E0
7001C0
3801C0
180380
0E0F00
07FC00
006000
ENDCHAR
STARTCHAR 00A7
ENCODING 167
SWIDTH 756 0
DWIDTH 21 0
BBX 19 30 1 -1
BITMAP
000400
000E00
001C00
003000
0061C0
000040
000040
000040
000180
07FC00
0E0F00
1C0380
380180
7001C0
7000E0
E000E0
E000E0
E000E0
E00060
E00060
E000E0
E000E0
E000E0
6000E0
7001C0
3801C0
180380
0E0F00
07FC00
006000
ENDCHAR
STARTCHAR 00A8
ENCODING 168
SWIDTH 684 0
DWIDTH 19 0
BBX 18 28 1 -1
BITMAP
020000
070000
018000
00C000
002000
000000
000000
F80FC0
780780
700300
700300
700180
600180
600180
600180
600180
600180
600180
600180
600180
600180
600180
700300
300300
380600
1E1E00
0FF800
01C000
ENDCHAR
STARTCHAR 00A9
ENCODING 169
SWIDTH 756 0
DWIDTH 21 0
BBX 19 30 1 -1
BITMAP
020000
030000
038000
00C000
0021C0
000040
000040
000040
000180
07FC00
0E0F00
1C0380
380180
7001C0
7000E0
E000E0
E000E0
E000E0
E00060
E00060
E000E0
E000E0
E000E0
6000E0
7001C0
3801C0
180380
0E0F00
07FC00
006000
ENDCHAR
STARTCHAR 00AA
ENCODING 170
SWIDTH 756 0
DWIDTH 21 0
BBX 19 31 1 -1
BITMAP
006000
009000
001000
001000
002000
0041C0
000040
000040
000040
000180
07FC00
0E0F00
1C0380
380180
7001C0
7000E0
E000E0
E000E0
E000E0
E00060
E00060
E000E0
E000E0
E000E0
6000E0
7001C0
3801C0
180380
0E0F00
07FC00
006000
ENDCHAR
STARTCHAR 00AB
ENCODING 171
SWIDTH 756 0
DWIDTH 21 0
BBX 19 31 1 -1
BITMAP
01C800
03F800
020000
000000
000000
0001C0
000040
000040
000040
000180
07FC00
0E0F00
1C0380
380180
7001C0
7000E0
E000E0
E000E0
E000E0
E00060
E00060
E000E0
E000E0
E000E0
6000E0
7001C0
3801C0
180380
0E0F00
07FC00
006000
ENDCHAR
STARTCHAR 00AC
ENCODING 172
SWIDTH 684 0
DWIDTH 19 0
BBX 18 27 1 -1
BITMAP
000400
01FC00
017800
020000
000000
000000
F80FC0
780780
700300
700300
700180
600180
600180
600180
600180
600180
600180
600180
600180
600180
600180
700300
300300
380600
1E1E00
0FF800
01C000
ENDCHAR
STARTCHAR 00AD
ENCODING 173
SWIDTH 684 0
DWIDTH 19 0
BBX 20 30 1 -1
BITMAP
000400
001C00
001800
003000
0040E0
008090
000010
000020
0000C0
F80FC0
780780
700300
700300
700180
600180
600180
600180
600180
600180
600180
600180
600180
600180
600180
700300
300300
380600
1E1E00
0FF800
01C000
ENDCHAR
STARTCHAR 00AE
ENCODING 174
SWIDTH 756 0
DWIDTH 21 0
BBX 19 30 1 -5
BITMAP
0001C0
000040
000040
000040
000180
07FC00
0E0F00
1C0380
380180
7001C0
7000E0
E000E0
E000E0
E000E0
E00060
E00060
E000E0
E000E0
E000E0
6000E0
7001C0
3801C0
180380
0E0F00
07FC00
006000
000000
006000
00E000
006000
ENDCHAR
STARTCHAR 00AF
ENCODING 175
SWIDTH 684 0
DWIDTH 19 0
BBX 20 29 1 -1
BITMAP
060000
030000
018000
0040E0
002090
000010
000020
0000C0
F80FC0
780780
700300
700300
700180
600180
600180
600180
600180
600180
600180
600180
600180
600180
600180
700300
300300
380600
1E1E00
0FF800
01C000
ENDCHAR
STARTCHAR 00B0
ENCODING 176
SWIDTH 756 0
DWIDTH 21 0
BBX 19 32 1 -1
BITMAP
000700
000480
000080
000100
006200
00E400
01B000
011800
020800
000000
000000
07FC00
0E0F00
1C0380
380180
7001C0
7000E0
E000E0
E000E0
E000E0
E00060
E00060
E000E0
E000E0
E000E0
6000E0
7001C0
3801C0
180380
0E0F00
07FC00
006000
ENDCHAR
STARTCHAR 00B1
ENCODING 177
SWIDTH 684 0
DWIDTH 19 0
BBX 20 30 1 -1
BITMAP
006000
009000
001000
001000
0020E0
004090
000010
000020
0000C0
F80FC0
780780
700300
700300
700180
600180
600180
600180
600180
600180
600180
600180
600180
600180
600180
700300
300300
380600
1E1E00
0FF800
01C000
ENDCHAR
STARTCHAR 00B2
ENCODING 178
SWIDTH 648 0
DWIDTH 18 0
BBX 19 27 -1 0
BITMAP
020000
030000
018000
00C000
002000
000000
000000
FC03E0
3801C0
3801C0
1C0180
0C0100
0E0300
070600
030400
038C00
01D800
00F000
00F000
006000
006000
006000
006000
006000
006000
00F000
01F800
ENDCHAR
STARTCHAR 00B3
ENCODING 179
SWIDTH 648 0
DWIDTH 18 0
BBX 19 26 -1 0
BITMAP
000200
00FE00
011C00
000000
000000
000000
FC03E0
3801C0
3801C0
1C0180
0C0100
0E0300
070600
030400
038C00
01D800
00F000
00F000
006000
006000
006000
006000
006000
006000
00F000
01F800
ENDCHAR
STARTCHAR 00B4
ENCODING 180
SWIDTH 252 0
DWIDTH 7 0
BBX 7 27 1 0
BITMAP
04
0E
18
30
40
00
00
FC
78
30
30
30
30
30
30
30
30
30
30
30
30
30
30
30
70
78
FC
ENDCHAR
STARTCHAR 00B5
ENCODING 181
SWIDTH 252 0
DWIDTH 7 0
BBX 7 27 0 0
BITMAP
C0
E0
70
18
04
00
00
7E
3C
18
18
18
18
18
18
18
18
18
18
18
18
18
18
18
38
3C
7E
ENDCHAR
STARTCHAR 00B6
ENCODING 182
SWIDTH 756 0
DWIDTH 21 0
BBX 19 32 1 -5
BITMAP
006000
00E000
01B000
011800
020800
000000
000000
07FC00
0E0F00
1C0380
380180
7001C0
7000E0
E000E0
E000E0
E000E0
E00060
E00060
E000E0
E000E0
E000E0
6000E0
7001C0
3801C0
180380
0E0F00
07FC00
006000
000000
006000
00E000
006000
ENDCHAR
STARTCHAR 00B8
ENCODING 184
SWIDTH 252 0
DWIDTH 7 0
BBX 7 25 0 1
BITMAP
7A
FE
80
00
00
7E
3C
18
18
18
18
18
18
18
18
18
18
18
18
18
18
18
38
3C
7E
ENDCHAR
STARTCHAR 00B9
ENCODING 185
SWIDTH 756 0
DWIDTH 21 0
BBX 19 28 1 -1
BITMAP
000800
001800
003000
006000
008000
000000
000000
07FC00
0E0F00
1C0380
380180
7001C0
7000E0
E000E0
E000E0
E000E0
E00060
E00060
E000E0
E000E0
E000E0
6000E0
7001C0
3801C0
180380
0E0F00
07FC00
006000
ENDCHAR
STARTCHAR 00BA
ENCODING 186
SWIDTH 684 0
DWIDTH 19 0
BBX 20 30 1 -1
BITMAP
006000
009000
001000
001000
0020E0
004090
000010
000020
0000C0
F80FC0
780780
700300
700300
700180
600180
600180
600180
600180
600180
600180
600180
600180
600180
600180
700300
300300
380600
1E1E00
0FF800
01C000
ENDCHAR
STARTCHAR 00BB
ENCODING 187
SWIDTH 684 0
DWIDTH 19 0
BBX 20 32 1 -1
BITMAP
000400
01E800
03F800
020000
000000
000000
0000E0
000090
000010
000020
0000C0
F80FC0
780780
700300
700300
700180
600180
600180
600180
600180
600180
600180
600180
600180
600180
600180
700300
300300
380600
1E1E00
0FF800
01C000
ENDCHAR
STARTCHAR 00BC
ENCODING 188
SWIDTH 756 0
DWIDTH 21 0
BBX 19 28 1 -1
BITMAP
030000
038000
01C000
006000
003000
000000
000000
07FC00
0E0F00
1C0380
380180
7001C0
7000E0
E000E0
E000E0
E000E0
E00060
E00060
E000E0
E000E0
E000E0
6000E0
7001C0
3801C0
180380
0E0F00
07FC00
006000
ENDCHAR
STARTCHAR 00BD
ENCODING 189
SWIDTH 756 0
DWIDTH 21 0
BBX 19 29 1 -1
BITMAP
007000
009000
001000
001000
006000
004000
000000
000000
07FC00
0E0F00
1C0380
380180
7001C0
7000E0
E000E0
E000E0
E000E0
E00060
E00060
E000E0
E000E0
E000E0
6000E0
7001C0
3801C0
180380
0E0F00
07FC00
006000
ENDCHAR
STARTCHAR 00BE
ENCODING 190
SWIDTH 756 0
DWIDTH 21 0
BBX 19 27 1 -1
BITMAP
008800
03F800
023000
000000
000000
000000
07FC00
0E0F00
1C0380
380180
7001C0
7000E0
E000E0
E000E0
E000E0
E00060
E00060
E000E0
E000E0
E000E0
6000E0
7001C0
3801C0
180380
0E0F00
07FC00
006000
ENDCHAR
STARTCHAR 00BF
ENCODING 191
SWIDTH 684 0
DWIDTH 19 0
BBX 20 30 1 -5
BITMAP
0000E0
000090
000010
000020
0000C0
F80FC0
780780
700300
700300
700180
600180
600180
600180
600180
600180
600180
600180
600180
600180
600180
700300
300300
380600
1E1E00
0FF800
01C000
000000
01C000
01C000
008000
ENDCHAR
STARTCHAR 00C0
ENCODING 192
SWIDTH 648 0
DWIDTH 18 0
BBX 18 30 0 0
BITMAP
C00000
600000
300000
08C000
04E000
01A000
031000
020800
000000
000000
00C000
01E000
01E000
037000
033000
023800
063800
061C00
0C1C00
0C0C00
180E00
1FFE00
1FFE00
300700
300300
300300
600380
600380
7003C0
F807C0
ENDCHAR
STARTCHAR 00C1
ENCODING 193
SWIDTH 648 0
DWIDTH 18 0
BBX 18 27 0 0
BITMAP
001800
003800
007000
00C000
010000
000000
000000
00C000
01E000
01E000
037000
033000
023800
063800
061C00
0C1C00
0C0C00
180E00
1FFE00
1FFE00
300700
300300
300300
600380
600380
7003C0
F807C0
ENDCHAR
STARTCHAR 00C2
ENCODING 194
SWIDTH 648 0
DWIDTH 18 0
BBX 18 27 0 0
BITMAP
00C000
00E000
01A000
031000
020800
000000
000000
00C000
01E000
01E000
037000
033000
023800
063800
061C00
0C1C00
0C0C00
180E00
1FFE00
1FFE00
300700
300300
300300
600380
600380
7003C0
F807C0
ENDCHAR
STARTCHAR 00C3
ENCODING 195
SWIDTH 648 0
DWIDTH 18 0
BBX 18 30 0 0
BITMAP
0000C0
0001C0
000380
00C600
00EC00
01A000
031000
020800
000000
000000
00C000
01E000
01E000
037000
033000
023800
063800
061C00
0C1C00
0C0C00
180E00
1FFE00
1FFE00
300700
300300
300300
600380
600380
7003C0
F807C0
ENDCHAR
STARTCHAR 00C4
ENCODING 196
SWIDTH 648 0
DWIDTH 18 0
BBX 18 31 0 0
BITMAP
000E00
000100
000100
000200
00CC00
00E000
01A000
031000
020800
000000
000000
00C000
01E000
01E000
037000
033000
023800
063800
061C00
0C1C00
0C0C00
180E00
1FFE00
1FFE00
300700
300300
300300
600380
600380
7003C0
F807C0
ENDCHAR
STARTCHAR 00C5
ENCODING 197
SWIDTH 648 0
DWIDTH 18 0
BBX 18 30 0 0
BITMAP
01C800
03F000
040000
00C000
00E000
01A000
031000
020800
000000
000000
00C000
01E000
01E000
037000
033000
023800
063800
061C00
0C1C00
0C0C00
180E00
1FFE00
1FFE00
300700
300300
300300
600380
600380
7003C0
F807C0
ENDCHAR
STARTCHAR 00C6
ENCODING 198
SWIDTH 648 0
DWIDTH 18 0
BBX 18 31 0 -4
BITMAP
00C000
00E000
01A000
031000
020800
000000
000000
00C000
01E000
01E000
037000
033000
023800
063800
061C00
0C1C00
0C0C00
180E00
1FFE00
1FFE00
300700
300300
300300
600380
600380
7003C0
F807C0
000000
008000
01C000
01C000
ENDCHAR
STARTCHAR 00C7
ENCODING 199
SWIDTH 720 0
DWIDTH 20 0
BBX 19 20 0 0
BITMAP
7FF800
3C3E00
180700
180380
1801C0
1800C0
1800E0
1800E0
FFC0E0
FFC0E0
1800E0
1800E0
1800E0
1800E0
1801C0
1801C0
180380
180700
3C3E00
7FF000
ENDCHAR
STARTCHAR 00C8
ENCODING 200
SWIDTH 612 0
DWIDTH 17 0
BBX 16 28 1 0
BITMAP
03C0
0240
0040
0040
0180
0000
0000
0000
FFFE
7C7E
7006
7000
7000
7000
7000
7000
7FF8
7FF8
7008
7000
7000
7000
7000
7000
7001
7003
7FFF
FFFE
ENDCHAR
STARTCHAR 00C9
ENCODING 201
SWIDTH 612 0
DWIDTH 17 0
BBX 16 27 1 0
BITMAP
0030
0070
00E0
0180
0200
0000
0000
FFFE
7C7E
7006
7000
7000
7000
7000
7000
7FF8
7FF8
7008
7000
7000
7000
7000
7000
7001
7003
7FFF
FFFE
ENDCHAR
STARTCHAR 00CA
ENCODING 202
SWIDTH 612 0
DWIDTH 17 0
BBX 16 27 1 0
BITMAP
0180
03C0
03C0
0620
0810
0000
0000
FFFE
7C7E
7006
7000
7000
7000
7000
7000
7FF8
7FF8
7008
7000
7000
7000
7000
7000
7001
7003
7FFF
FFFE
ENDCHAR
STARTCHAR 00CB
ENCODING 203
SWIDTH 612 0
DWIDTH 17 0
BBX 16 24 1 -4
BITMAP
FFFE
7C7E
7006
7000
7000
7000
7000
7000
7FF8
7FF8
7008
7000
7000
7000
7000
7000
7001
7003
7FFF
FFFE
0000
0100
0380
0380
ENDCHAR
STARTCHAR 00CC
ENCODING 204
SWIDTH 252 0
DWIDTH 7 0
BBX 6 28 1 0
BITMAP
78
48
08
18
20
20
00
00
FC
78
30
30
30
30
30
30
30
30
30
30
30
30
30
30
30
70
78
FC
ENDCHAR
STARTCHAR 00CD
ENCODING 205
SWIDTH 612 0
DWIDTH 17 0
BBX 16 30 1 0
BITMAP
0390
07E0
0800
0180
03C0
03C0
0620
0810
0000
0000
FFFE
7C7E
7006
7000
7000
7000
7000
7000
7FF8
7FF8
7008
7000
7000
7000
7000
7000
7001
7003
7FFF
FFFE
ENDCHAR
STARTCHAR 00CE
ENCODING 206
SWIDTH 252 0
DWIDTH 7 0
BBX 6 25 1 -5
BITMAP
FC
78
30
30
30
30
30
30
30
30
30
30
30
30
30
30
30
70
78
FC
00
00
30
70
30
ENDCHAR
STARTCHAR 00CF
ENCODING 207
SWIDTH 648 0
DWIDTH 18 0
BBX 19 26 -1 0
BITMAP
000200
00FE00
011C00
000000
000000
000000
FC03E0
3801C0
3801C0
1C0180
0C0100
0E0300
070600
030400
038C00
01D800
00F000
00F000
006000
006000
006000
006000
006000
006000
00F000
01F800
ENDCHAR
STARTCHAR 00D0
ENCODING 208
SWIDTH 684 0
DWIDTH 19 0
BBX 20 26 1 -1
BITMAP
0000E0
000090
000010
000020
0000C0
F80FC0
780780
700300
700300
700180
600180
600180
600180
600180
600180
600180
600180
600180
600180
600180
700300
300300
380600
1E1E00
0FF800
01C000
ENDCHAR
STARTCHAR 00D1
ENCODING 209
SWIDTH 684 0
DWIDTH 19 0
BBX 18 29 1 -1
BITMAP
00F000
009000
001000
003000
004000
004000
000000
000000
F80FC0
780780
700300
700300
700180
600180
600180
600180
600180
600180
600180
600180
600180
600180
600180
700300
300300
380600
1E1E00
0FF800
01C000
ENDCHAR
STARTCHAR 00D2
ENCODING 210
SWIDTH 756 0
DWIDTH 21 0
BBX 19 31 1 -1
BITMAP
600000
700000
380000
0C6000
02E000
01B000
011800
020800
000000
000000
07FC00
0E0F00
1C0380
380180
7001C0
7000E0
E000E0
E000E0
E000E0
E00060
E00060
E000E0
E000E0
E000E0
6000E0
7001C0
3801C0
180380
0E0F00
07FC00
006000
ENDCHAR
STARTCHAR 00D3
ENCODING 211
SWIDTH 756 0
DWIDTH 21 0
BBX 19 31 1 -1
BITMAP
000040
0000C0
000180
006300
00E400
01B000
011800
020800
000000
000000
07FC00
0E0F00
1C0380
380180
7001C0
7000E0
E000E0
E000E0
E000E0
E00060
E00060
E000E0
E000E0
E000E0
6000E0
7001C0
3801C0
180380
0E0F00
07FC00
006000
ENDCHAR
STARTCHAR 00D4
ENCODING 212
SWIDTH 756 0
DWIDTH 21 0
BBX 19 28 1 -1
BITMAP
006000
00E000
01B000
011800
020800
000000
000000
07FC00
0E0F00
1C0380
380180
7001C0
7000E0
E000E0
E000E0
E000E0
E00060
E00060
E000E0
E000E0
E000E0
6000E0
7001C0
3801C0
180380
0E0F00
07FC00
006000
ENDCHAR
STARTCHAR 00D5
ENCODING 213
SWIDTH 756 0
DWIDTH 21 0
BBX 19 29 1 -1
BITMAP
007000
009000
001000
001000
006000
004000
000000
000000
07FC00
0E0F00
1C0380
380180
7001C0
7000E0
E000E0
E000E0
E000E0
E00060
E00060
E000E0
E000E0
E000E0
6000E0
7001C0
3801C0
180380
0E0F00
07FC00
006000
ENDCHAR
STARTCHAR 00D6
ENCODING 214
SWIDTH 756 0
DWIDTH 21 0
BBX 19 26 1 -1
BITMAP
0001C0
000040
000040
000040
000180
07FC00
0E0F00
1C0380
380180
7001C0
7000E0
E000E0
E000E0
E000E0
E00060
E00060
E000E0
E000E0
E000E0
6000E0
7001C0
3801C0
180380
0E0F00
07FC00
006000
ENDCHAR
STARTCHAR 00D7
ENCODING 215
SWIDTH 612 0
DWIDTH 17 0
BBX 16 27 1 0
BITMAP
0C00
0E00
0300
0180
0040
0000
0000
FFFE
7C7E
7006
7000
7000
7000
7000
7000
7FF8
7FF8
7008
7000
7000
7000
7000
7000
7001
7003
7FFF
FFFE
ENDCHAR
STARTCHAR 00D8
ENCODING 216
SWIDTH 684 0
DWIDTH 19 0
BBX 20 29 1 -1
BITMAP
060000
030000
018000
0040E0
002090
000010
000020
0000C0
F80FC0
780780
700300
700300
700180
600180
600180
600180
600180
600180
600180
600180
600180
600180
600180
700300
300300
380600
1E1E00
0FF800
01C000
ENDCHAR
STARTCHAR 00D9
ENCODING 217
SWIDTH 684 0
DWIDTH 19 0
BBX 20 30 1 -1
BITMAP
000400
001C00
001800
003000
0040E0
008090
000010
000020
0000C0
F80FC0
780780
700300
700300
700180
600180
600180
600180
600180
600180
600180
600180
600180
600180
600180
700300
300300
380600
1E1E00
0FF800
01C000
ENDCHAR
STARTCHAR 00DA
ENCODING 218
SWIDTH 684 0
DWIDTH 19 0
BBX 18 28 1 -1
BITMAP
001800
003800
007000
00C000
010000
000000
000000
F80FC0
780780
700300
700300
700180
600180
600180
600180
600180
600180
600180
600180
600180
600180
600180
700300
300300
380600
1E1E00
0FF800
01C000
ENDCHAR
STARTCHAR 00DB
ENCODING 219
SWIDTH 684 0
DWIDTH 19 0
BBX 18 27 1 -1
BITMAP
000400
01FC00
017800
020000
000000
000000
F80FC0
780780
700300
700300
700180
600180
600180
600180
600180
600180
600180
600180
600180
600180
600180
700300
300300
380600
1E1E00
0FF800
01C000
ENDCHAR
STARTCHAR 00DC
ENCODING 220
SWIDTH 684 0
DWIDTH 19 0
BBX 20 26 1 -1
BITMAP
0000E0
000090
000010
000020
0000C0
F80FC0
780780
700300
700300
700180
600180
600180
600180
600180
600180
600180
600180
600180
600180
600180
700300
300300
380600
1E1E00
0FF800
01C000
ENDCHAR
STARTCHAR 00DD
ENCODING 221
SWIDTH 648 0
DWIDTH 18 0
BBX 19 27 -1 0
BITMAP
000C00
001C00
003800
006000
008000
000000
000000
FC03E0
3801C0
3801C0
1C0180
0C0100
0E0300
070600
030400
038C00
01D800
00F000
00F000
006000
006000
006000
006000
006000
006000
00F000
01F800
ENDCHAR
STARTCHAR 00DE
ENCODING 222
SWIDTH 612 0
DWIDTH 17 0
BBX 16 28 1 0
BITMAP
03C0
0240
0040
0040
0180
0000
0000
0000
FFFE
7C7E
7006
7000
7000
7000
7000
7000
7FF8
7FF8
7008
7000
7000
7000
7000
7000
7001
7003
7FFF
FFFE
ENDCHAR
STARTCHAR 00DF
ENCODING 223
SWIDTH 648 0
DWIDTH 18 0
BBX 17 21 0 0
BITMAP
004000
07FC00
0C0E00
180700
180300
380300
300300
300700
300E00
31F800
31FC00
300700
300380
300180
330180
330180
320180
320180
330380
7BCF00
F8FC00
ENDCHAR
STARTCHAR 00E0
ENCODING 224
SWIDTH 648 0
DWIDTH 18 0
BBX 18 27 0 0
BITMAP
020000
070000
018000
00C000
002000
000000
000000
00C000
01E000
01E000
037000
033000
023800
063800
061C00
0C1C00
0C0C00
180E00
1FFE00
1FFE00
300700
300300
300300
600380
600380
7003C0
F807C0
ENDCHAR
STARTCHAR 00E1
ENCODING 225
SWIDTH 648 0
DWIDTH 18 0
BBX 18 27 0 0
BITMAP
001800
003800
007000
00C000
010000
000000
000000
00C000
01E000
01E000
037000
033000
023800
063800
061C00
0C1C00
0C0C00
180E00
1FFE00
1FFE00
300700
300300
300300
600380
600380
7003C0
F807C0
ENDCHAR
STARTCHAR 00E2
ENCODING 226
SWIDTH 648 0
DWIDTH 18 0
BBX 18 27 0 0
BITMAP
00C000
00E000
01A000
031000
020800
000000
000000
00C000
01E000
01E000
037000
033000
023800
063800
061C00
0C1C00
0C0C00
180E00
1FFE00
1FFE00
300700
300300
300300
600380
600380
7003C0
F807C0
ENDCHAR
STARTCHAR 00E3
ENCODING 227
SWIDTH 648 0
DWIDTH 18 0
BBX 18 26 0 0
BITMAP
000800
03F800
046000
000000
000000
000000
00C000
01E000
01E000
037000
033000
023800
063800
061C00
0C1C00
0C0C00
180E00
1FFE00
1FFE00
300700
300300
300300
600380
600380
7003C0
F807C0
ENDCHAR
STARTCHAR 00E4
ENCODING 228
SWIDTH 648 0
DWIDTH 18 0
BBX 18 28 0 0
BITMAP
01E000
012000
002000
002000
00C000
000000
000000
000000
00C000
01E000
01E000
037000
033000
023800
063800
061C00
0C1C00
0C0C00
180E00
1FFE00
1FFE00
300700
300300
300300
600380
600380
7003C0
F807C0
ENDCHAR
STARTCHAR 00E5
ENCODING 229
SWIDTH 648 0
DWIDTH 18 0
BBX 18 24 0 -3
BITMAP
00C000
01E000
01E000
037000
033000
023800
063800
061C00
0C1C00
0C0C00
180E00
1FFE00
1FFE00
300700
300300
300300
600380
600380
7003C0
F807C0
000000
008000
01C000
01C000
ENDCHAR
STARTCHAR 00E6
ENCODING 230
SWIDTH 648 0
DWIDTH 18 0
BBX 18 25 0 0
BITMAP
041000
03F000
01E000
000000
000000
00C000
01E000
01E000
037000
033000
023800
063800
061C00
0C1C00
0C0C00
180E00
1FFE00
1FFE00
300700
300300
300300
600380
600380
7003C0
F807C0
ENDCHAR
STARTCHAR 00E7
ENCODING 231
SWIDTH 684 0
DWIDTH 19 0
BBX 18 27 1 -6
BITMAP
002000
03FE00
0E0F80
1C0380
380180
700080
700080
E00000
E00000
E00000
E00000
E00000
E00000
E00000
E00000
700000
7000C0
3800C0
3C0380
1F0F00
07FC00
00E000
006000
003800
001800
031800
01F000
ENDCHAR
STARTCHAR 00E8
ENCODING 232
SWIDTH 612 0
DWIDTH 17 0
BBX 16 27 1 0
BITMAP
0C00
0E00
0300
0180
0040
0000
0000
FFFE
7C7E
7006
7000
7000
7000
7000
7000
7FF8
7FF8
7008
7000
7000
7000
7000
7000
7001
7003
7FFF
FFFE
ENDCHAR
STARTCHAR 00E9
ENCODING 233
SWIDTH 612 0
DWIDTH 17 0
BBX 16 27 1 0
BITMAP
0030
0070
00E0
0180
0200
0000
0000
FFFE
7C7E
7006
7000
7000
7000
7000
7000
7FF8
7FF8
7008
7000
7000
7000
7000
7000
7001
7003
7FFF
FFFE
ENDCHAR
STARTCHAR 00EA
ENCODING 234
SWIDTH 612 0
DWIDTH 17 0
BBX 16 27 1 0
BITMAP
0180
03C0
03C0
0620
0810
0000
0000
FFFE
7C7E
7006
7000
7000
7000
7000
7000
7FF8
7FF8
7008
7000
7000
7000
7000
7000
7001
7003
7FFF
FFFE
ENDCHAR
STARTCHAR 00EB
ENCODING 235
SWIDTH 612 0
DWIDTH 17 0
BBX 16 25 1 1
BITMAP
07A0
0FC0
0000
0000
0000
FFFE
7C7E
7006
7000
7000
7000
7000
7000
7FF8
7FF8
7008
7000
7000
7000
7000
7000
7001
7003
7FFF
FFFE
ENDCHAR
STARTCHAR 00EC
ENCODING 236
SWIDTH 252 0
DWIDTH 7 0
BBX 7 27 0 0
BITMAP
C0
E0
70
18
04
00
00
7E
3C
18
18
18
18
18
18
18
18
18
18
18
18
18
18
18
38
3C
7E
ENDCHAR
STARTCHAR 00ED
ENCODING 237
SWIDTH 252 0
DWIDTH 7 0
BBX 7 27 1 0
BITMAP
04
0E
18
30
40
00
00
FC
78
30
30
30
30
30
30
30
30
30
30
30
30
30
30
30
70
78
FC
ENDCHAR
STARTCHAR 00EE
ENCODING 238
SWIDTH 252 0
DWIDTH 7 0
BBX 7 27 0 0
BITMAP
18
38
2C
46
82
00
00
7E
3C
18
18
18
18
18
18
18
18
18
18
18
18
18
18
18
38
3C
7E
ENDCHAR
STARTCHAR 00EF
ENCODING 239
SWIDTH 252 0
DWIDTH 7 0
BBX 7 25 0 1
BITMAP
7A
FE
80
00
00
7E
3C
18
18
18
18
18
18
18
18
18
18
18
18
18
18
18
38
3C
7E
ENDCHAR
STARTCHAR 00F0
ENCODING 240
SWIDTH 648 0
DWIDTH 18 0
BBX 18 30 0 0
BITMAP
01C800
03F000
040000
000000
000000
041000
03F000
01E000
000000
000000
00C000
01E000
01E000
037000
033000
023800
063800
061C00
0C1C00
0C0C00
180E00
1FFE00
1FFE00
300700
300300
300300
600380
600380
7003C0
F807C0
ENDCHAR
STARTCHAR 00F1
ENCODING 241
SWIDTH 720 0
DWIDTH 20 0
BBX 19 20 0 0
BITMAP
7FF800
3C3E00
180700
180380
1801C0
1800C0
1800E0
1800E0
FFC0E0
FFC0E0
1800E0
1800E0
1800E0
1800E0
1801C0
1801C0
180380
180700
3C3E00
7FF000
ENDCHAR
STARTCHAR 00F2
ENCODING 242
SWIDTH 756 0
DWIDTH 21 0
BBX 19 28 1 -1
BITMAP
030000
038000
01C000
006000
003000
000000
000000
07FC00
0E0F00
1C0380
380180
7001C0
7000E0
E000E0
E000E0
E000E0
E00060
E00060
E000E0
E000E0
E000E0
6000E0
7001C0
3801C0
180380
0E0F00
07FC00
006000
ENDCHAR
STARTCHAR 00F3
ENCODING 243
SWIDTH 756 0
DWIDTH 21 0
BBX 19 28 1 -1
BITMAP
000800
001800
003000
006000
008000
000000
000000
07FC00
0E0F00
1C0380
380180
7001C0
7000E0
E000E0
E000E0
E000E0
E00060
E00060
E000E0
E000E0
E000E0
6000E0
7001C0
3801C0
180380
0E0F00
07FC00
006000
ENDCHAR
STARTCHAR 00F4
ENCODING 244
SWIDTH 756 0
DWIDTH 21 0
BBX 19 28 1 -1
BITMAP
006000
00E000
01B000
011800
020800
000000
000000
07FC00
0E0F00
1C0380
380180
7001C0
7000E0
E000E0
E000E0
E000E0
E00060
E00060
E000E0
E000E0
E000E0
6000E0
7001C0
3801C0
180380
0E0F00
07FC00
006000
ENDCHAR
STARTCHAR 00F5
ENCODING 245
SWIDTH 756 0
DWIDTH 21 0
BBX 19 27 1 -1
BITMAP
008800
03F800
023000
000000
000000
000000
07FC00
0E0F00
1C0380
380180
7001C0
7000E0
E000E0
E000E0
E000E0
E00060
E00060
E000E0
E000E0
E000E0
6000E0
7001C0
3801C0
180380
0E0F00
07FC00
006000
ENDCHAR
STARTCHAR 00F6
ENCODING 246
SWIDTH 756 0
DWIDTH 21 0
BBX 19 26 1 -1
BITMAP
039800
031800
000000
000000
000000
07FC00
0E0F00
1C0380
380180
7001C0
7000E0
E000E0
E000E0
E000E0
E00060
E00060
E000E0
E000E0
E000E0
6000E0
7001C0
3801C0
180380
0E0F00
07FC00
006000
ENDCHAR
STARTCHAR 00F7
ENCODING 247
SWIDTH 756 0
DWIDTH 21 0
BBX 19 26 1 -1
BITMAP
0001C0
000040
000040
000040
000180
07FC00
0E0F00
1C0380
380180
7001C0
7000E0
E000E0
E000E0
E000E0
E00060
E00060
E000E0
E000E0
E000E0
6000E0
7001C0
3801C0
180380
0E0F00
07FC00
006000
ENDCHAR
STARTCHAR 00F8
ENCODING 248
SWIDTH 684 0
DWIDTH 19 0
BBX 18 25 1 -5
BITMAP
F80FC0
780780
700300
700300
700180
600180
600180
600180
600180
600180
600180
600180
600180
600180
600180
700300
300300
380600
1E1E00
0FF800
01C000
000000
01C000
01C000
00C000
ENDCHAR
STARTCHAR 00F9
ENCODING 249
SWIDTH 684 0
DWIDTH 19 0
BBX 18 28 1 -1
BITMAP
020000
070000
018000
00C000
002000
000000
000000
F80FC0
780780
700300
700300
700180
600180
600180
600180
600180
600180
600180
600180
600180
600180
600180
700300
300300
380600
1E1E00
0FF800
01C000
ENDCHAR
STARTCHAR 00FA
ENCODING 250
SWIDTH 684 0
DWIDTH 19 0
BBX 18 28 1 -1
BITMAP
001800
003800
007000
00C000
010000
000000
000000
F80FC0
780780
700300
700300
700180
600180
600180
600180
600180
600180
600180
600180
600180
600180
600180
700300
300300
380600
1E1E00
0FF800
01C000
ENDCHAR
STARTCHAR 00FB
ENCODING 251
SWIDTH 684 0
DWIDTH 19 0
BBX 18 29 1 -1
BITMAP
00F000
009000
001000
003000
004000
004000
000000
000000
F80FC0
780780
700300
700300
700180
600180
600180
600180
600180
600180
600180
600180
600180
600180
600180
700300
300300
380600
1E1E00
0FF800
01C000
ENDCHAR
STARTCHAR 00FC
ENCODING 252
SWIDTH 684 0
DWIDTH 19 0
BBX 18 26 1 -1
BITMAP
073800
033800
000000
000000
000000
F80FC0
780780
700300
700300
700180
600180
600180
600180
600180
600180
600180
600180
600180
600180
600180
700300
300300
380600
1E1E00
0FF800
01C000
ENDCHAR
STARTCHAR 00FD
ENCODING 253
SWIDTH 648 0
DWIDTH 18 0
BBX 19 28 -1 0
BITMAP
00F000
009000
001000
001000
006000
000000
000000
000000
FC03E0
3801C0
3801C0
1C0180
0C0100
0E0300
070600
030400
038C00
01D800
00F000
00F000
006000
006000
006000
006000
006000
006000
00F000
01F800
ENDCHAR
STARTCHAR 00FE
ENCODING 254
SWIDTH 612 0
DWIDTH 17 0
BBX 16 25 1 1
BITMAP
07A0
0FC0
0000
0000
0000
FFFE
7C7E
7006
7000
7000
7000
7000
7000
7FF8
7FF8
7008
7000
7000
7000
7000
7000
7001
7003
7FFF
FFFE
ENDCHAR
STARTCHAR 00FF
ENCODING 255
SWIDTH 648 0
DWIDTH 18 0
BBX 19 27 -1 0
BITMAP
020000
030000
018000
00C000
002000
000000
000000
FC03E0
3801C0
3801C0
1C0180
0C0100
0E0300
070600
030400
038C00
01D800
00F000
00F000
006000
006000
006000
006000
006000
006000
00F000
01F800
ENDCHAR
STARTCHAR 0106
ENCODING 262
SWIDTH 684 0
DWIDTH 19 0
BBX 0 0 0 0
BITMAP
ENDCHAR
STARTCHAR 0107
ENCODING 263
SWIDTH 432 0
DWIDTH 12 0
BBX 0 0 0 0
BITMAP
ENDCHAR
STARTCHAR 010C
ENCODING 268
SWIDTH 684 0
DWIDTH 19 0
BBX 0 0 0 0
BITMAP
ENDCHAR
STARTCHAR 010D
ENCODING 269
SWIDTH 432 0
DWIDTH 12 0
BBX 0 0 0 0
BITMAP
ENDCHAR
STARTCHAR 0111
ENCODING 273
SWIDTH 540 0
DWIDTH 15 0
BBX 0 0 0 0
BITMAP
ENDCHAR
STARTCHAR 011E
ENCODING 286
SWIDTH 756 0
DWIDTH 21 0
BBX 0 0 0 0
BITMAP
ENDCHAR
STARTCHAR 011F
ENCODING 287
SWIDTH 468 0
DWIDTH 13 0
BBX 0 0 0 0
BITMAP
ENDCHAR
STARTCHAR 0130
ENCODING 304
SWIDTH 252 0
DWIDTH 7 0
BBX 0 0 0 0
BITMAP
ENDCHAR
STARTCHAR 0131
ENCODING 305
SWIDTH 216 0
DWIDTH 6 0
BBX 0 0 0 0
BITMAP
ENDCHAR
STARTCHAR 0141
ENCODING 321
SWIDTH 576 0
DWIDTH 16 0
BBX 0 0 0 0
BITMAP
ENDCHAR
STARTCHAR 0142
ENCODING 322
SWIDTH 216 0
DWIDTH 6 0
BBX 0 0 0 0
BITMAP
ENDCHAR
STARTCHAR 0152
ENCODING 338
SWIDTH 612 0
DWIDTH 17 0
BBX 16 32 1 -5
BITMAP
0180
03C0
03C0
0620
0810
0000
0000
FFFE
7C7E
7006
7000
7000
7000
7000
7000
7FF8
7FF8
7008
7000
7000
7000
7000
7000
7001
7003
7FFF
FFFE
0000
0000
0180
01C0
0080
ENDCHAR
STARTCHAR 0153
ENCODING 339
SWIDTH 648 0
DWIDTH 18 0
BBX 19 25 -1 -5
BITMAP
FC03E0
3801C0
3801C0
1C0180
0C0100
0E0300
070600
030400
038C00
01D800
00F000
00F000
006000
006000
006000
006000
006000
006000
00F000
01F800
000000
000000
007000
007000
002000
ENDCHAR
STARTCHAR 015E
ENCODING 350
SWIDTH 576 0
DWIDTH 16 0
BBX 0 0 0 0
BITMAP
ENDCHAR
STARTCHAR 015F
ENCODING 351
SWIDTH 360 0
DWIDTH 10 0
BBX 0 0 0 0
BITMAP
ENDCHAR
STARTCHAR 0160
ENCODING 352
SWIDTH 612 0
DWIDTH 17 0
BBX 17 30 0 0
BITMAP
C00000
600000
300000
18C000
05E000
01E000
031000
040800
000000
000000
7FFF00
3E3F00
380300
380000
380000
380000
380000
380000
3FFC00
3FFC00
380400
380000
380000
380000
380000
380000
380080
380180
3FFF80
7FFF00
ENDCHAR
STARTCHAR 0161
ENCODING 353
SWIDTH 648 0
DWIDTH 18 0
BBX 19 27 -1 0
BITMAP
000C00
001C00
003800
006000
008000
000000
000000
FC03E0
3801C0
3801C0
1C0180
0C0100
0E0300
070600
030400
038C00
01D800
00F000
00F000
006000
006000
006000
006000
006000
006000
00F000
01F800
ENDCHAR
STARTCHAR 0178
ENCODING 376
SWIDTH 756 0
DWIDTH 21 0
BBX 19 31 1 -1
BITMAP
006000
009000
001000
001000
002000
0041C0
000040
000040
000040
000180
07FC00
0E0F00
1C0380
380180
7001C0
7000E0
E000E0
E000E0
E000E0
E00060
E00060
E000E0
E000E0
E000E0
6000E0
7001C0
3801C0
180380
0E0F00
07FC00
006000
ENDCHAR
STARTCHAR 017D
ENCODING 381
SWIDTH 540 0
DWIDTH 15 0
BBX 0 0 0 0
BITMAP
ENDCHAR
STARTCHAR 017E
ENCODING 382
SWIDTH 360 0
DWIDTH 10 0
BBX 0 0 0 0
BITMAP
ENDCHAR
STARTCHAR 0192
ENCODING 402
SWIDTH 648 0
DWIDTH 18 0
BBX 18 30 0 0
BITMAP
0000C0
0001C0
000380
00C600
00EC00
01A000
031000
020800
000000
000000
00C000
01E000
01E000
037000
033000
023800
063800
061C00
0C1C00
0C0C00
180E00
1FFE00
1FFE00
300700
300300
300300
600380
600380
7003C0
F807C0
ENDCHAR
STARTCHAR 02C6
ENCODING 710
SWIDTH 648 0
DWIDTH 18 0
BBX 18 25 0 0
BITMAP
041000
03F000
01E000
000000
000000
00C000
01E000
01E000
037000
033000
023800
063800
061C00
0C1C00
0C0C00
180E00
1FFE00
1FFE00
300700
300300
300300
600380
600380
7003C0
F807C0
ENDCHAR
STARTCHAR 02C7
ENCODING 711
SWIDTH 468 0
DWIDTH 13 0
BBX 0 0 0 0
BITMAP
ENDCHAR
STARTCHAR 02DA
ENCODING 730
SWIDTH 468 0
DWIDTH 13 0
BBX 0 0 0 0
BITMAP
ENDCHAR
STARTCHAR 02DB
ENCODING 731
SWIDTH 468 0
DWIDTH 13 0
BBX 0 0 0 0
BITMAP
ENDCHAR
STARTCHAR 02DC
ENCODING 732
SWIDTH 756 0
DWIDTH 21 0
BBX 19 32 1 -1
BITMAP
000700
000480
000080
000100
006200
00E400
01B000
011800
020800
000000
000000
07FC00
0E0F00
1C0380
380180
7001C0
7000E0
E000E0
E000E0
E000E0
E00060
E00060
E000E0
E000E0
E000E0
6000E0
7001C0
3801C0
180380
0E0F00
07FC00
006000
ENDCHAR
STARTCHAR 03A9
ENCODING 937
SWIDTH 756 0
DWIDTH 21 0
BBX 0 0 0 0
BITMAP
ENDCHAR
STARTCHAR 03C0
ENCODING 960
SWIDTH 648 0
DWIDTH 18 0
BBX 0 0 0 0
BITMAP
ENDCHAR
STARTCHAR 2013
ENCODING 8211
SWIDTH 756 0
DWIDTH 21 0
BBX 19 31 1 -1
BITMAP
000040
0000C0
000180
006300
00E400
01B000
011800
020800
000000
000000
07FC00
0E0F00
1C0380
380180
7001C0
7000E0
E000E0
E000E0
E000E0
E00060
E00060
E000E0
E000E0
E000E0
6000E0
7001C0
3801C0
180380
0E0F00
07FC00
006000
ENDCHAR
STARTCHAR 2014
ENCODING 8212
SWIDTH 756 0
DWIDTH 21 0
BBX 19 31 1 -1
BITMAP
600000
700000
380000
0C6000
02E000
01B000
011800
020800
000000
000000
07FC00
0E0F00
1C0380
380180
7001C0
7000E0
E000E0
E000E0
E000E0
E00060
E00060
E000E0
E000E0
E000E0
6000E0
7001C0
3801C0
180380
0E0F00
07FC00
006000
ENDCHAR
STARTCHAR 2018
ENCODING 8216
SWIDTH 252 0
DWIDTH 7 0
BBX 3 8 3 13
BITMAP
20
40
80
80
80
E0
E0
40
ENDCHAR
STARTCHAR 2019
ENCODING 8217
SWIDTH 252 0
DWIDTH 7 0
BBX 3 8 2 13
BITMAP
40
E0
E0
20
20
40
40
80
ENDCHAR
STARTCHAR 201A
ENCODING 8218
SWIDTH 648 0
DWIDTH 18 0
BBX 18 26 0 0
BITMAP
000800
03F800
046000
000000
000000
000000
00C000
01E000
01E000
037000
033000
023800
063800
061C00
0C1C00
0C0C00
180E00
1FFE00
1FFE00
300700
300300
300300
600380
600380
7003C0
F807C0
ENDCHAR
STARTCHAR 201C
ENCODING 8220
SWIDTH 612 0
DWIDTH 17 0
BBX 17 30 0 0
BITMAP
C00000
600000
300000
18C000
05E000
01E000
031000
040800
000000
000000
7FFF00
3E3F00
380300
380000
380000
380000
380000
380000
3FFC00
3FFC00
380400
380000
380000
380000
380000
380000
380080
380180
3FFF80
7FFF00
ENDCHAR
STARTCHAR 201D
ENCODING 8221
SWIDTH 612 0
DWIDTH 17 0
BBX 16 31 1 0
BITMAP
001E
0012
0002
0004
0188
03C8
03C0
0620
0810
0000
0000
FFFE
7C7E
7006
7000
7000
7000
7000
7000
7FF8
7FF8
7008
7000
7000
7000
7000
7000
7001
7003
7FFF
FFFE
ENDCHAR
STARTCHAR 201E
ENCODING 8222
SWIDTH 648 0
DWIDTH 18 0
BBX 18 30 0 0
BITMAP
C00000
600000
300000
08C000
04E000
01A000
031000
020800
000000
000000
00C000
01E000
01E000
037000
033000
023800
063800
061C00
0C1C00
0C0C00
180E00
1FFE00
1FFE00
300700
300300
300300
600380
600380
7003C0
F807C0
ENDCHAR
STARTCHAR 2020
ENCODING 8224
SWIDTH 756 0
DWIDTH 21 0
BBX 19 25 1 -4
BITMAP
07FC00
0E0F00
1C0380
380180
7001C0
7000E0
E000E0
E000E0
E000E0
E00060
E00060
E000E0
E000E0
E000E0
6000E0
7001C0
3801C0
180380
0E0F00
07FC00
006000
000000
006000
00E000
006000
ENDCHAR
STARTCHAR 2021
ENCODING 8225
SWIDTH 756 0
DWIDTH 21 0
BBX 19 31 1 -1
BITMAP
01C800
03F800
020000
006000
00E000
01B000
011800
020800
000000
000000
07FC00
0E0F00
1C0380
380180
7001C0
7000E0
E000E0
E000E0
E000E0
E00060
E00060
E000E0
E000E0
E000E0
6000E0
7001C0
3801C0
180380
0E0F00
07FC00
006000
ENDCHAR
STARTCHAR 2022
ENCODING 8226
SWIDTH 612 0
DWIDTH 17 0
BBX 16 30 1 0
BITMAP
0390
07E0
0800
0180
03C0
03C0
0620
0810
0000
0000
FFFE
7C7E
7006
7000
7000
7000
7000
7000
7FF8
7FF8
7008
7000
7000
7000
7000
7000
7001
7003
7FFF
FFFE
ENDCHAR
STARTCHAR 2026
ENCODING 8230
SWIDTH 648 0
DWIDTH 18 0
BBX 18 31 0 0
BITMAP
000E00
000100
000100
000200
00CC00
00E000
01A000
031000
020800
000000
000000
00C000
01E000
01E000
037000
033000
023800
063800
061C00
0C1C00
0C0C00
180E00
1FFE00
1FFE00
300700
300300
300300
600380
600380
7003C0
F807C0
ENDCHAR
STARTCHAR 2030
ENCODING 8240
SWIDTH 612 0
DWIDTH 17 0
BBX 17 30 1 0
BITMAP
000180
000300
000600
018800
03D000
03C000
062000
081000
000000
000000
FFFE00
7C7E00
700600
700000
700000
700000
700000
700000
7FF800
7FF800
700800
700000
700000
700000
700000
700000
700100
700300
7FFF00
FFFE00
ENDCHAR
STARTCHAR 2039
ENCODING 8249
SWIDTH 612 0
DWIDTH 17 0
BBX 16 31 1 0
BITMAP
001E
0012
0002
0004
0188
03C8
03C0
0620
0810
0000
0000
FFFE
7C7E
7006
7000
7000
7000
7000
7000
7FF8
7FF8
7008
7000
7000
7000
7000
7000
7001
7003
7FFF
FFFE
ENDCHAR
STARTCHAR 203A
ENCODING 8250
SWIDTH 648 0
DWIDTH 18 0
BBX 19 28 -1 0
BITMAP
00F000
009000
001000
001000
006000
000000
000000
000000
FC03E0
3801C0
3801C0
1C0180
0C0100
0E0300
070600
030400
038C00
01D800
00F000
00F000
006000
006000
006000
006000
006000
006000
00F000
01F800
ENDCHAR
STARTCHAR 20A3
ENCODING 8355
SWIDTH 864 0
DWIDTH 24 0
BBX 0 0 0 0
BITMAP
ENDCHAR
STARTCHAR 2122
ENCODING 8482
SWIDTH 756 0
DWIDTH 21 0
BBX 19 31 1 -1
BITMAP
01C800
03F800
020000
006000
00E000
01B000
011800
020800
000000
000000
07FC00
0E0F00
1C0380
380180
7001C0
7000E0
E000E0
E000E0
E000E0
E00060
E00060
E000E0
E000E0
E000E0
6000E0
7001C0
3801C0
180380
0E0F00
07FC00
006000
ENDCHAR
STARTCHAR 2202
ENCODING 8706
SWIDTH 504 0
DWIDTH 14 0
BBX 0 0 0 0
BITMAP
ENDCHAR
STARTCHAR 2206
ENCODING 8710
SWIDTH 576 0
DWIDTH 16 0
BBX 0 0 0 0
BITMAP
ENDCHAR
STARTCHAR 220F
ENCODING 8719
SWIDTH 756 0
DWIDTH 21 0
BBX 0 0 0 0
BITMAP
ENDCHAR
STARTCHAR 2211
ENCODING 8721
SWIDTH 684 0
DWIDTH 19 0
BBX 0 0 0 0
BITMAP
ENDCHAR
STARTCHAR 2212
ENCODING 8722
SWIDTH 828 0
DWIDTH 23 0
BBX 0 0 0 0
BITMAP
ENDCHAR
STARTCHAR 2215
ENCODING 8725
SWIDTH 144 0
DWIDTH 4 0
BBX 0 0 0 0
BITMAP
ENDCHAR
STARTCHAR 2219
ENCODING 8729
SWIDTH 252 0
DWIDTH 7 0
BBX 6 28 1 0
BITMAP
78
48
08
18
20
20
00
00
FC
78
30
30
30
30
30
30
30
30
30
30
30
30
30
30
30
70
78
FC
ENDCHAR
STARTCHAR 221A
ENCODING 8730
SWIDTH 612 0
DWIDTH 17 0
BBX 0 0 0 0
BITMAP
ENDCHAR
STARTCHAR 221E
ENCODING 8734
SWIDTH 828 0
DWIDTH 23 0
BBX 0 0 0 0
BITMAP
ENDCHAR
STARTCHAR 222B
ENCODING 8747
SWIDTH 468 0
DWIDTH 13 0
BBX 0 0 0 0
BITMAP
ENDCHAR
STARTCHAR 2248
ENCODING 8776
SWIDTH 828 0
DWIDTH 23 0
BBX 0 0 0 0
BITMAP
ENDCHAR
STARTCHAR 2260
ENCODING 8800
SWIDTH 828 0
DWIDTH 23 0
BBX 0 0 0 0
BITMAP
ENDCHAR
STARTCHAR 2264
ENCODING 8804
SWIDTH 828 0
DWIDTH 23 0
BBX 0 0 0 0
BITMAP
ENDCHAR
STARTCHAR 2265
ENCODING 8805
SWIDTH 828 0
DWIDTH 23 0
BBX 0 0 0 0
BITMAP
ENDCHAR
STARTCHAR 25CA
ENCODING 9674
SWIDTH 468 0
DWIDTH 13 0
BBX 0 0 0 0
BITMAP
ENDCHAR
STARTCHAR F000
ENCODING 61440
SWIDTH 756 0
DWIDTH 21 0
BBX 0 0 0 0
BITMAP
ENDCHAR
STARTCHAR F001
ENCODING 61441
SWIDTH 504 0
DWIDTH 14 0
BBX 0 0 0 0
BITMAP
ENDCHAR
STARTCHAR F002
ENCODING 61442
SWIDTH 504 0
DWIDTH 14 0
BBX 0 0 0 0
BITMAP
ENDCHAR
ENDFONT
